grf
version=1
nRows=12
nColumns=37
inDegrees=no
endheader
time	ground_force_1_vx	ground_force_1_vy	ground_force_1_vz	ground_force_1_px	ground_force_1_py	ground_force_1_pz	ground_moment_1_mx	ground_moment_1_my	ground_moment_1_mz	ground_force_2_vx	ground_force_2_vy	ground_force_2_vz	ground_force_2_px	ground_force_2_py	ground_force_2_pz	ground_moment_2_mx	ground_moment_2_my	ground_moment_2_mz	ground_force_3_vx	ground_force_3_vy	ground_force_3_vz	ground_force_3_px	ground_force_3_py	ground_force_3_pz	ground_moment_3_mx	ground_moment_3_my	ground_moment_3_mz	ground_force_4_vx	ground_force_4_vy	ground_force_4_vz	ground_force_4_px	ground_force_4_py	ground_force_4_pz	ground_moment_4_mx	ground_moment_4_my	ground_moment_4_mz
      4.77000000	      0.00000000	     -0.00000000	      0.00000000	      0.00000000	      0.00000000	      0.00000000	      0.00000000	      0.00000000	      0.00000000	      6.27959681	     26.88255119	   -197.71176147	   -255.59290151	  -1070.06737779	      0.00000000	      0.00000000	      0.00000000	   2099.75714703	      8.87107371	    -54.72285539	   -419.26293945	   -214.74467105	   -625.46596945	      0.00000000	      0.00000000	     -0.00000000	  -1520.54615931	      0.00000000	     -0.00000000	      0.00000000	      0.00000000	      0.00000000	      0.00000000	      0.00000000	      0.00000000	      0.00000000
      4.78000000	      0.00000000	     -0.00000000	      0.00000000	      0.00000000	      0.00000000	      0.00000000	      0.00000000	      0.00000000	      0.00000000	      8.94006920	     26.29493713	   -192.41358948	   -254.98486640	  -1067.91899226	      0.00000000	      0.00000000	      0.00000000	   1768.86157314	      8.63981166	    -52.86844711	   -405.01586914	   -212.76317497	   -624.41520283	      0.00000000	      0.00000000	     -0.00000000	  -1482.04557651	      0.00000000	     -0.00000000	      0.00000000	      0.00000000	      0.00000000	      0.00000000	      0.00000000	      0.00000000	      0.00000000
      4.79000000	      0.00000000	     -0.00000000	      0.00000000	      0.00000000	      0.00000000	      0.00000000	      0.00000000	      0.00000000	      0.00000000	     10.02784252	     26.55989265	   -196.08856201	   -253.74239670	  -1068.80187661	      0.00000000	      0.00000000	      0.00000000	   1380.24739031	      7.11439335	    -53.25694719	   -395.10159302	   -210.82449369	   -624.38529874	      0.00000000	      0.00000000	     -0.00000000	  -1447.92891441	      0.00000000	     -0.00000000	      0.00000000	      0.00000000	      0.00000000	      0.00000000	      0.00000000	      0.00000000	      0.00000000
      4.80000000	      0.00000000	     -0.00000000	      0.00000000	      0.00000000	      0.00000000	      0.00000000	      0.00000000	      0.00000000	      0.00000000	      8.84960556	     30.05507851	   -204.63183594	   -253.10122027	  -1072.85363386	      0.00000000	      0.00000000	      0.00000000	   1155.89563431	      5.23393150	    -54.97169159	   -398.73471069	   -211.19391604	   -622.74223076	      0.00000000	      0.00000000	     -0.00000000	  -1508.58354788	      0.00000000	     -0.00000000	      0.00000000	      0.00000000	      0.00000000	      0.00000000	      0.00000000	      0.00000000	      0.00000000
      4.81000000	      0.00000000	     -0.00000000	      0.00000000	      0.00000000	      0.00000000	      0.00000000	      0.00000000	      0.00000000	      0.00000000	      7.11894178	     32.94248199	   -217.62857056	   -252.64194946	  -1074.29788776	      0.00000000	      0.00000000	      0.00000000	   1042.90771900	      5.83712229	    -56.27862218	   -404.24844360	   -210.93714334	   -624.16697782	      0.00000000	      0.00000000	     -0.00000000	  -1520.05982965	      0.00000000	     -0.00000000	      0.00000000	      0.00000000	      0.00000000	      0.00000000	      0.00000000	      0.00000000	      0.00000000
      4.82000000	      0.00000000	     -0.00000000	      0.00000000	      0.00000000	      0.00000000	      0.00000000	      0.00000000	      0.00000000	      0.00000000	      6.79801512	     34.90399170	   -229.77058411	   -252.26339856	  -1076.84240142	      0.00000000	      0.00000000	      0.00000000	    972.64253530	      7.73573411	    -58.53945990	   -415.13815308	   -213.46285946	   -623.63738458	      0.00000000	      0.00000000	     -0.00000000	  -1727.23405680	      0.00000000	     -0.00000000	      0.00000000	      0.00000000	      0.00000000	      0.00000000	      0.00000000	      0.00000000	      0.00000000
      4.83000000	      0.00000000	     -0.00000000	      0.00000000	      0.00000000	      0.00000000	      0.00000000	      0.00000000	      0.00000000	      0.00000000	      6.72564793	     36.84843063	   -241.99453735	   -250.61921236	  -1076.94994121	      0.00000000	      0.00000000	      0.00000000	    993.01976456	      9.66947013	    -62.07093514	   -419.04772949	   -214.54028236	   -624.47500499	      0.00000000	      0.00000000	     -0.00000000	  -1861.62758640	      0.00000000	     -0.00000000	      0.00000000	      0.00000000	      0.00000000	      0.00000000	      0.00000000	      0.00000000	      0.00000000
      4.84000000	      0.00000000	     -0.00000000	      0.00000000	      0.00000000	      0.00000000	      0.00000000	      0.00000000	      0.00000000	      0.00000000	      4.94304752	     41.08715439	   -255.83889771	   -250.10280427	  -1078.56051635	      0.00000000	      0.00000000	      0.00000000	    726.30558699	     11.03448868	    -65.46254827	   -420.37854004	   -215.56829983	   -624.12341097	      0.00000000	      0.00000000	     -0.00000000	  -1915.10988721	      0.00000000	     -0.00000000	      0.00000000	      0.00000000	      0.00000000	      0.00000000	      0.00000000	      0.00000000	      0.00000000
      4.85000000	      0.00000000	     -0.00000000	      0.00000000	      0.00000000	      0.00000000	      0.00000000	      0.00000000	      0.00000000	      0.00000000	      5.15584087	     43.67389679	   -267.63766479	   -247.65233420	  -1080.47896835	      0.00000000	      0.00000000	      0.00000000	    751.87460754	     11.22976092	    -67.79471686	   -422.89447021	   -215.93347856	   -622.80482811	      0.00000000	      0.00000000	     -0.00000000	  -1856.17565195	      0.00000000	     -0.00000000	      0.00000000	      0.00000000	      0.00000000	      0.00000000	      0.00000000	      0.00000000	      0.00000000
      4.86000000	      0.00000000	     -0.00000000	      0.00000000	      0.00000000	      0.00000000	      0.00000000	      0.00000000	      0.00000000	      0.00000000	      6.68757153	     46.20005798	   -274.48126221	   -246.50370894	  -1081.26696443	      0.00000000	      0.00000000	      0.00000000	    829.20368440	     10.92978832	    -68.50417423	   -421.91973877	   -214.84205511	   -622.35165592	      0.00000000	      0.00000000	     -0.00000000	  -1661.12611357	      0.00000000	     -0.00000000	      0.00000000	      0.00000000	      0.00000000	      0.00000000	      0.00000000	      0.00000000	      0.00000000
      4.87000000	      0.00000000	     -0.00000000	      0.00000000	      0.00000000	      0.00000000	      0.00000000	      0.00000000	      0.00000000	      0.00000000	      9.45631409	     47.77761459	   -278.32055664	   -244.16283845	  -1080.58432142	      0.00000000	      0.00000000	      0.00000000	    732.38013164	     12.11280796	    -68.46769820	   -419.97097778	   -213.57626032	   -621.45296367	      0.00000000	      0.00000000	     -0.00000000	  -1970.11944666	      0.00000000	     -0.00000000	      0.00000000	      0.00000000	      0.00000000	      0.00000000	      0.00000000	      0.00000000	      0.00000000
      4.88000000	      0.00000000	     -0.00000000	      0.00000000	      0.00000000	      0.00000000	      0.00000000	      0.00000000	      0.00000000	      0.00000000	     11.29663467	     49.45299149	   -284.85107422	   -245.12438826	  -1082.37177287	      0.00000000	      0.00000000	      0.00000000	    907.61681893	     10.78975165	    -69.53186892	   -426.16784668	   -213.71556963	   -620.65085982	      0.00000000	      0.00000000	     -0.00000000	  -1842.47802578	      0.00000000	     -0.00000000	      0.00000000	      0.00000000	      0.00000000	      0.00000000	      0.00000000	      0.00000000	      0.00000000
